<svg height="512" viewBox="0 0 60 60" width="512" xmlns="http://www.w3.org/2000/svg"><g id="019---Hover-Truck"><path id="Shape" d="m58 10h-3c-1.1045695 0-2 .8954305-2 2v8.29l-2 1.63v-16.92c0-2.76142375-2.2385763-5-5-5h-32c-2.7614237 0-5 2.23857625-5 5v16.92l-2-1.63c0-.29 0 .55 0-8.29 0-1.1045695-.8954305-2-2-2h-3c-1.1045695 0-2 .8954305-2 2v8c0 1.1045695.8954305 2 2 2 3.24 0 3.24.05 3.73-.14l3.27 2.62v4.62c-2.32833127.4752686-4.00048501 2.5236569-4 4.9v13c.00590719 1.819157 1.23859706 3.4052179 3 3.86v2.14c0 1.6568542 1.34314575 3 3 3v2c0 .5522847.4477153 1 1 1s1-.4477153 1-1v-2h3v3c0 .5522847.4477153 1 1 1s1-.4477153 1-1v-3h3v2c0 .5522847.4477153 1 1 1s1-.4477153 1-1v-2c1.6568542 0 3-1.3431458 3-3v-2h8v2c0 1.6568542 1.3431458 3 3 3v2c0 .5522847.4477153 1 1 1s1-.4477153 1-1v-2h3v3c0 .5522847.4477153 1 1 1s1-.4477153 1-1v-3h3v2c0 .5522847.4477153 1 1 1s1-.4477153 1-1v-2c1.6568542 0 3-1.3431458 3-3v-2.14c1.7614029-.4547821 2.9940928-2.040843 3-3.86v-13c.000485-2.3763431-1.6716687-4.4247314-4-4.9v-4.62l3.27-2.62c.48.19.47.14 3.73.14 1.1045695 0 2-.8954305 2-2v-8c0-1.1045695-.8954305-2-2-2zm-56 2h3v8h-3zm39.9 17c-.4752686-2.3283313-2.5236569-4.000485-4.9-4v-1c0-1.1045695-.8954305-2-2-2h-10c-1.1045695 0-2 .8954305-2 2v1c-2.3763431-.000485-4.4247314 1.6716687-4.9 4h-7.1v-9h38v9zm-21.9 12v-11c0-1.6568542 1.3431458-3 3-3 1.1045695 0 2-.8954305 2-2v-1h10v1c0 1.1045695.8954305 2 2 2 1.6568542 0 3 1.3431458 3 3v11zm-9-33h14.15l-1.53 1.22c-.3316698.26608471-.458801.71281334-.3169283 1.11366.1418727.4008467.5217193.6681394.9469283.66634.47 0 .34 0 4.1-3h12.8l-1.53 1.22c-.3316698.26608471-.458801.71281334-.3169283 1.11366.1418727.4008467.5217193.6681394.9469283.66634.47 0 .34 0 4.1-3h4.65v10h-17.15l5.27-4.22c.3777024-.3565237.4195872-.9428527.0963985-1.349445-.3231887-.4065922-.9038491-.4980777-1.3363985-.210555l-7.23 5.78h-12.8l5.27-4.22c.3144469-.209018.4843547-.5773256.4392706-.9522027-.0450842-.374877-.2974724-.6923976-.6525109-.8209007s-.7521844-.0460757-1.0267597.2131034l-7.23 5.78h-1.65zm3-6h32c1.6568542 0 3 1.34314575 3 3v1h-38v-1c0-1.65685425 1.3431458-3 3-3zm-4 29 8-.0000001v10.0000001h-2.22c-1.0920269-3.9858258-4.6497274-6.797949-8.78-6.94-.01612312-.8059939.29281528-1.5845608.85718142-2.1602143s1.3366635-.8999469 2.14281858-.8997857zm-3 5c3.0520291.1218734 5.7145889 2.1088584 6.7 5h-6.7zm17 17c0 .5522847-.4477153 1-1 1h-12c-.5522847 0-1-.4477153-1-1v-2h14zm26 0c0 .5522847-.4477153 1-1 1h-12c-.5522847 0-1-.4477153-1-1v-2h14zm3-6c0 1.1045695-.8954305 2-2 2h-42c-1.1045695 0-2-.8954305-2-2v-4h46zm0-6h-6.7c.9854111-2.8911416 3.6479709-4.8781266 6.7-5zm0-6.94c-4.1302726.142051-7.6879731 2.9541742-8.78 6.94h-2.22v-10.0000001l8 .0000001c.8061551-.0001612 1.5784524.3241322 2.1428186.8997857.5643661.5756535.8733045 1.3542204.8571814 2.1602143zm5-14.06h-3v-8h3z"/><path id="Shape" d="m37 29h-14c-.5522847 0-1 .4477153-1 1s.4477153 1 1 1h14c.5522847 0 1-.4477153 1-1s-.4477153-1-1-1z"/><path id="Shape" d="m37 33h-14c-.5522847 0-1 .4477153-1 1s.4477153 1 1 1h14c.5522847 0 1-.4477153 1-1s-.4477153-1-1-1z"/><path id="Shape" d="m37 37h-14c-.5522847 0-1 .4477153-1 1s.4477153 1 1 1h14c.5522847 0 1-.4477153 1-1s-.4477153-1-1-1z"/><circle id="Oval" cx="10" cy="46" r="1"/><circle id="Oval" cx="50" cy="46" r="1"/><path id="Shape" d="m34 45h-8c-.5522847 0-1 .4477153-1 1s.4477153 1 1 1h8c.5522847 0 1-.4477153 1-1s-.4477153-1-1-1z"/></g></svg>